<svg width="24" height="24" viewBox="0 0 24 24" fill="none" xmlns="http://www.w3.org/2000/svg">
<path d="M14 13C13.1667 13 12.4583 12.7083 11.875 12.125C11.2917 11.5417 11 10.8333 11 10C11 9.16667 11.2917 8.45833 11.875 7.875C12.4583 7.29167 13.1667 7 14 7C14.8333 7 15.5417 7.29167 16.125 7.875C16.7083 8.45833 17 9.16667 17 10C17 10.8333 16.7083 11.5417 16.125 12.125C15.5417 12.7083 14.8333 13 14 13ZM5 16V4H23V16H5ZM9 14H19C19 13.45 19.196 12.979 19.588 12.587C19.98 12.195 20.4507 11.9993 21 12V8C20.45 8 19.979 7.804 19.587 7.412C19.195 7.02 18.9993 6.54933 19 6H9C9 6.55 8.804 7.021 8.412 7.413C8.02 7.805 7.54933 8.00067 7 8V12C7.55 12 8.021 12.196 8.413 12.588C8.805 12.98 9.00067 13.4507 9 14ZM1 20V7H3V18H20V20H1Z" fill="#BB8095"/>
</svg>
