<svg width="26" height="26" viewBox="0 0 26 26" fill="none" xmlns="http://www.w3.org/2000/svg">
<path d="M8.66667 17.3333V13C8.66667 11.8507 9.12321 10.7485 9.93587 9.93587C10.7485 9.12321 11.8507 8.66667 13 8.66667C14.1493 8.66667 15.2515 9.12321 16.0641 9.93587C16.8768 10.7485 17.3333 11.8507 17.3333 13V17.3333M3.25 13H4.33333M13 3.25V4.33333M21.6667 13H22.75M6.06667 6.06667L6.825 6.825M19.9333 6.06667L19.175 6.825M6.5 18.4167C6.5 18.1293 6.61414 17.8538 6.8173 17.6506C7.02047 17.4475 7.29602 17.3333 7.58333 17.3333H18.4167C18.704 17.3333 18.9795 17.4475 19.1827 17.6506C19.3859 17.8538 19.5 18.1293 19.5 18.4167V20.5833C19.5 20.8706 19.3859 21.1462 19.1827 21.3494C18.9795 21.5525 18.704 21.6667 18.4167 21.6667H7.58333C7.29602 21.6667 7.02047 21.5525 6.8173 21.3494C6.61414 21.1462 6.5 20.8706 6.5 20.5833V18.4167Z" stroke="#BB8095" stroke-width="2" stroke-linecap="round" stroke-linejoin="round"/>
</svg>
